# xmcd
#
# Track frame offsets: 
#        150
#        4563
#        20223
#        36407
#        52734
#        67550
#        85140
#        103099
#        123528
#        140139
#        153832
#        172421
#        189935
#        201896
#
# Disc length: 2895 seconds
#
# Revision: 8
# Processed by: cddbd v1.5.1PL0 Copyright (c) Steve Scherf et al.
# Submitted via: ExactAudioCopy v0.90b4
#
DISCID=ba0b4d0e
DTITLE=Martina McBride - Evolution
DYEAR=1997
DGENRE=Country
TTITLE0=I'm Little But I'm Loud
TTITLE1=Happy Girl
TTITLE2=Be That Way
TTITLE3=A Broken Wing
TTITLE4=Wrong Again
TTITLE5=Keeping My Distance
TTITLE6=Still Holding On (With Clint Black)
TTITLE7=Whatever You Say
TTITLE8=I Won't Close My Eyes
TTITLE9=I Don't Want to See You Again
TTITLE10=Some Say I'm Running
TTITLE11=Here In My Heart
TTITLE12=One Day You Will
TTITLE13=Valentine (With Jim Brickman)
EXTD=0\n\n\n
EXTT0=
EXTT1=
EXTT2=
EXTT3=
EXTT4=
EXTT5=
EXTT6=
EXTT7=
EXTT8=
EXTT9=
EXTT10=
EXTT11=
EXTT12=
EXTT13=
PLAYORDER=
